<mxfile host="app.diagrams.net" modified="2023-09-15T13:20:40.868Z" agent="Mozilla/5.0 (Windows NT 10.0; Win64; x64; rv:109.0) Gecko/20100101 Firefox/117.0" etag="0YX-j4P2OrN73afVKFUK" version="21.6.9">
  <diagram name="Page-1" id="ri4anvCGel_wYtRjSs9z">
    <mxGraphModel dx="1257" dy="631" grid="1" gridSize="10" guides="1" tooltips="1" connect="1" arrows="1" fold="1" page="1" pageScale="1" pageWidth="827" pageHeight="1169" math="0" shadow="0">
      <root>
        <mxCell id="0" />
        <mxCell id="1" parent="0" />
        <mxCell id="vQDiU9HeTUrOOh70G-Bs-10" value="Photographie" style="swimlane;fontStyle=0;childLayout=stackLayout;horizontal=1;startSize=30;horizontalStack=0;resizeParent=1;resizeParentMax=0;resizeLast=0;collapsible=1;marginBottom=0;whiteSpace=wrap;html=1;fillColor=#dae8fc;strokeColor=#000000;" parent="1" vertex="1">
          <mxGeometry x="400" y="210" width="140" height="150" as="geometry" />
        </mxCell>
        <mxCell id="vQDiU9HeTUrOOh70G-Bs-11" value="&lt;u&gt;Code&lt;/u&gt;" style="text;strokeColor=default;fillColor=#dae8fc;align=left;verticalAlign=middle;spacingLeft=4;spacingRight=4;overflow=hidden;points=[[0,0.5],[1,0.5]];portConstraint=eastwest;rotatable=0;whiteSpace=wrap;html=1;" parent="vQDiU9HeTUrOOh70G-Bs-10" vertex="1">
          <mxGeometry y="30" width="140" height="30" as="geometry" />
        </mxCell>
        <mxCell id="vQDiU9HeTUrOOh70G-Bs-12" value="&lt;div&gt;Lieu&lt;/div&gt;" style="text;strokeColor=none;fillColor=#dae8fc;align=left;verticalAlign=middle;spacingLeft=4;spacingRight=4;overflow=hidden;points=[[0,0.5],[1,0.5]];portConstraint=eastwest;rotatable=0;whiteSpace=wrap;html=1;" parent="vQDiU9HeTUrOOh70G-Bs-10" vertex="1">
          <mxGeometry y="60" width="140" height="30" as="geometry" />
        </mxCell>
        <mxCell id="vQDiU9HeTUrOOh70G-Bs-13" value="Date réalisation" style="text;strokeColor=none;fillColor=#dae8fc;align=left;verticalAlign=middle;spacingLeft=4;spacingRight=4;overflow=hidden;points=[[0,0.5],[1,0.5]];portConstraint=eastwest;rotatable=0;whiteSpace=wrap;html=1;" parent="vQDiU9HeTUrOOh70G-Bs-10" vertex="1">
          <mxGeometry y="90" width="140" height="30" as="geometry" />
        </mxCell>
        <mxCell id="vQDiU9HeTUrOOh70G-Bs-14" value="Licence" style="text;strokeColor=none;fillColor=#dae8fc;align=left;verticalAlign=middle;spacingLeft=4;spacingRight=4;overflow=hidden;points=[[0,0.5],[1,0.5]];portConstraint=eastwest;rotatable=0;whiteSpace=wrap;html=1;" parent="vQDiU9HeTUrOOh70G-Bs-10" vertex="1">
          <mxGeometry y="120" width="140" height="30" as="geometry" />
        </mxCell>
        <mxCell id="vQDiU9HeTUrOOh70G-Bs-16" value="" style="edgeStyle=orthogonalEdgeStyle;rounded=0;orthogonalLoop=1;jettySize=auto;html=1;endArrow=none;endFill=0;entryX=0;entryY=0.5;entryDx=0;entryDy=0;" parent="1" source="vQDiU9HeTUrOOh70G-Bs-15" target="vQDiU9HeTUrOOh70G-Bs-12" edge="1">
          <mxGeometry relative="1" as="geometry">
            <mxPoint x="430" y="295" as="targetPoint" />
          </mxGeometry>
        </mxCell>
        <mxCell id="vQDiU9HeTUrOOh70G-Bs-22" value="" style="edgeStyle=orthogonalEdgeStyle;rounded=0;orthogonalLoop=1;jettySize=auto;html=1;entryX=1.007;entryY=-0.133;entryDx=0;entryDy=0;entryPerimeter=0;endArrow=none;endFill=0;" parent="1" source="vQDiU9HeTUrOOh70G-Bs-15" target="vQDiU9HeTUrOOh70G-Bs-20" edge="1">
          <mxGeometry relative="1" as="geometry" />
        </mxCell>
        <mxCell id="vQDiU9HeTUrOOh70G-Bs-15" value="possède" style="ellipse;whiteSpace=wrap;html=1;fillColor=#ffe6cc;strokeColor=#d79b00;" parent="1" vertex="1">
          <mxGeometry x="260" y="290" width="80" height="30" as="geometry" />
        </mxCell>
        <mxCell id="vQDiU9HeTUrOOh70G-Bs-17" value="Configuration" style="swimlane;fontStyle=0;childLayout=stackLayout;horizontal=1;startSize=30;horizontalStack=0;resizeParent=1;resizeParentMax=0;resizeLast=0;collapsible=1;marginBottom=0;whiteSpace=wrap;html=1;fillColor=#dae8fc;strokeColor=#000000;" parent="1" vertex="1">
          <mxGeometry x="80" y="210" width="140" height="150" as="geometry" />
        </mxCell>
        <mxCell id="vQDiU9HeTUrOOh70G-Bs-18" value="&lt;u&gt;Nom&lt;/u&gt;" style="text;strokeColor=default;fillColor=#dae8fc;align=left;verticalAlign=middle;spacingLeft=4;spacingRight=4;overflow=hidden;points=[[0,0.5],[1,0.5]];portConstraint=eastwest;rotatable=0;whiteSpace=wrap;html=1;" parent="vQDiU9HeTUrOOh70G-Bs-17" vertex="1">
          <mxGeometry y="30" width="140" height="30" as="geometry" />
        </mxCell>
        <mxCell id="vQDiU9HeTUrOOh70G-Bs-19" value="Ouverture focale" style="text;strokeColor=none;fillColor=#dae8fc;align=left;verticalAlign=middle;spacingLeft=4;spacingRight=4;overflow=hidden;points=[[0,0.5],[1,0.5]];portConstraint=eastwest;rotatable=0;whiteSpace=wrap;html=1;" parent="vQDiU9HeTUrOOh70G-Bs-17" vertex="1">
          <mxGeometry y="60" width="140" height="30" as="geometry" />
        </mxCell>
        <mxCell id="vQDiU9HeTUrOOh70G-Bs-20" value="Temps exposition" style="text;strokeColor=none;fillColor=#dae8fc;align=left;verticalAlign=middle;spacingLeft=4;spacingRight=4;overflow=hidden;points=[[0,0.5],[1,0.5]];portConstraint=eastwest;rotatable=0;whiteSpace=wrap;html=1;" parent="vQDiU9HeTUrOOh70G-Bs-17" vertex="1">
          <mxGeometry y="90" width="140" height="30" as="geometry" />
        </mxCell>
        <mxCell id="vQDiU9HeTUrOOh70G-Bs-21" value="Flash" style="text;strokeColor=none;fillColor=#dae8fc;align=left;verticalAlign=middle;spacingLeft=4;spacingRight=4;overflow=hidden;points=[[0,0.5],[1,0.5]];portConstraint=eastwest;rotatable=0;whiteSpace=wrap;html=1;" parent="vQDiU9HeTUrOOh70G-Bs-17" vertex="1">
          <mxGeometry y="120" width="140" height="30" as="geometry" />
        </mxCell>
        <mxCell id="vQDiU9HeTUrOOh70G-Bs-24" value="&lt;b&gt;1,1&lt;/b&gt;" style="text;html=1;strokeColor=none;fillColor=none;align=center;verticalAlign=middle;whiteSpace=wrap;rounded=0;" parent="1" vertex="1">
          <mxGeometry x="200" y="270" width="60" height="20" as="geometry" />
        </mxCell>
        <mxCell id="vQDiU9HeTUrOOh70G-Bs-28" value="&lt;b&gt;°, n&lt;br&gt;&lt;/b&gt;" style="text;html=1;strokeColor=none;fillColor=none;align=center;verticalAlign=middle;whiteSpace=wrap;rounded=0;" parent="1" vertex="1">
          <mxGeometry x="354" y="265" width="60" height="20" as="geometry" />
        </mxCell>
        <mxCell id="vQDiU9HeTUrOOh70G-Bs-29" value="Appareil" style="swimlane;fontStyle=0;childLayout=stackLayout;horizontal=1;startSize=30;horizontalStack=0;resizeParent=1;resizeParentMax=0;resizeLast=0;collapsible=1;marginBottom=0;whiteSpace=wrap;html=1;fillColor=#dae8fc;strokeColor=#000000;" parent="1" vertex="1">
          <mxGeometry x="680" y="210" width="140" height="90" as="geometry" />
        </mxCell>
        <mxCell id="vQDiU9HeTUrOOh70G-Bs-30" value="&lt;u&gt;Identifiant&lt;/u&gt;" style="text;strokeColor=default;fillColor=#dae8fc;align=left;verticalAlign=middle;spacingLeft=4;spacingRight=4;overflow=hidden;points=[[0,0.5],[1,0.5]];portConstraint=eastwest;rotatable=0;whiteSpace=wrap;html=1;" parent="vQDiU9HeTUrOOh70G-Bs-29" vertex="1">
          <mxGeometry y="30" width="140" height="30" as="geometry" />
        </mxCell>
        <mxCell id="vQDiU9HeTUrOOh70G-Bs-31" value="marque" style="text;strokeColor=none;fillColor=#dae8fc;align=left;verticalAlign=middle;spacingLeft=4;spacingRight=4;overflow=hidden;points=[[0,0.5],[1,0.5]];portConstraint=eastwest;rotatable=0;whiteSpace=wrap;html=1;" parent="vQDiU9HeTUrOOh70G-Bs-29" vertex="1">
          <mxGeometry y="60" width="140" height="30" as="geometry" />
        </mxCell>
        <mxCell id="vQDiU9HeTUrOOh70G-Bs-37" value="" style="edgeStyle=orthogonalEdgeStyle;rounded=0;orthogonalLoop=1;jettySize=auto;html=1;endArrow=none;endFill=0;" parent="1" source="vQDiU9HeTUrOOh70G-Bs-34" edge="1">
          <mxGeometry relative="1" as="geometry">
            <mxPoint x="536" y="280" as="targetPoint" />
          </mxGeometry>
        </mxCell>
        <mxCell id="vQDiU9HeTUrOOh70G-Bs-38" value="" style="edgeStyle=orthogonalEdgeStyle;rounded=0;orthogonalLoop=1;jettySize=auto;html=1;endArrow=none;endFill=0;" parent="1" source="vQDiU9HeTUrOOh70G-Bs-34" edge="1">
          <mxGeometry relative="1" as="geometry">
            <mxPoint x="680" y="290" as="targetPoint" />
          </mxGeometry>
        </mxCell>
        <mxCell id="vQDiU9HeTUrOOh70G-Bs-34" value="est prise" style="ellipse;whiteSpace=wrap;html=1;fillColor=#ffe6cc;strokeColor=#d79b00;" parent="1" vertex="1">
          <mxGeometry x="570" y="255" width="80" height="30" as="geometry" />
        </mxCell>
        <mxCell id="vQDiU9HeTUrOOh70G-Bs-42" value="&lt;b&gt;1, n&lt;br&gt;&lt;/b&gt;" style="text;html=1;strokeColor=none;fillColor=none;align=center;verticalAlign=middle;whiteSpace=wrap;rounded=0;" parent="1" vertex="1">
          <mxGeometry x="540" y="235" width="30" height="20" as="geometry" />
        </mxCell>
        <mxCell id="vQDiU9HeTUrOOh70G-Bs-43" value="&lt;b&gt;1, 1&lt;br&gt;&lt;/b&gt;" style="text;html=1;strokeColor=none;fillColor=none;align=center;verticalAlign=middle;whiteSpace=wrap;rounded=0;" parent="1" vertex="1">
          <mxGeometry x="650" y="245" width="30" height="20" as="geometry" />
        </mxCell>
        <mxCell id="Xazr9b2hqAeC7u9Wwyo1-1" value="Utlisateur" style="swimlane;fontStyle=0;childLayout=stackLayout;horizontal=1;startSize=30;horizontalStack=0;resizeParent=1;resizeParentMax=0;resizeLast=0;collapsible=1;marginBottom=0;whiteSpace=wrap;html=1;fillColor=#dae8fc;strokeColor=#000000;" vertex="1" parent="1">
          <mxGeometry x="670" y="375" width="140" height="120" as="geometry" />
        </mxCell>
        <mxCell id="Xazr9b2hqAeC7u9Wwyo1-2" value="&lt;u&gt;Identifiant&lt;/u&gt;" style="text;strokeColor=default;fillColor=#dae8fc;align=left;verticalAlign=middle;spacingLeft=4;spacingRight=4;overflow=hidden;points=[[0,0.5],[1,0.5]];portConstraint=eastwest;rotatable=0;whiteSpace=wrap;html=1;" vertex="1" parent="Xazr9b2hqAeC7u9Wwyo1-1">
          <mxGeometry y="30" width="140" height="30" as="geometry" />
        </mxCell>
        <mxCell id="Xazr9b2hqAeC7u9Wwyo1-62" value="Nom" style="text;strokeColor=default;fillColor=#dae8fc;align=left;verticalAlign=middle;spacingLeft=4;spacingRight=4;overflow=hidden;points=[[0,0.5],[1,0.5]];portConstraint=eastwest;rotatable=0;whiteSpace=wrap;html=1;" vertex="1" parent="Xazr9b2hqAeC7u9Wwyo1-1">
          <mxGeometry y="60" width="140" height="30" as="geometry" />
        </mxCell>
        <mxCell id="Xazr9b2hqAeC7u9Wwyo1-3" value="Prénom" style="text;strokeColor=none;fillColor=#dae8fc;align=left;verticalAlign=middle;spacingLeft=4;spacingRight=4;overflow=hidden;points=[[0,0.5],[1,0.5]];portConstraint=eastwest;rotatable=0;whiteSpace=wrap;html=1;" vertex="1" parent="Xazr9b2hqAeC7u9Wwyo1-1">
          <mxGeometry y="90" width="140" height="30" as="geometry" />
        </mxCell>
        <mxCell id="Xazr9b2hqAeC7u9Wwyo1-8" value="" style="edgeStyle=orthogonalEdgeStyle;rounded=0;orthogonalLoop=1;jettySize=auto;html=1;entryX=0.5;entryY=0;entryDx=0;entryDy=0;endArrow=none;endFill=0;" edge="1" parent="1" source="Xazr9b2hqAeC7u9Wwyo1-7" target="Xazr9b2hqAeC7u9Wwyo1-1">
          <mxGeometry relative="1" as="geometry" />
        </mxCell>
        <mxCell id="Xazr9b2hqAeC7u9Wwyo1-11" style="edgeStyle=orthogonalEdgeStyle;rounded=0;orthogonalLoop=1;jettySize=auto;html=1;exitX=0;exitY=0.5;exitDx=0;exitDy=0;entryX=1.032;entryY=-0.129;entryDx=0;entryDy=0;entryPerimeter=0;endArrow=none;endFill=0;" edge="1" parent="1" source="Xazr9b2hqAeC7u9Wwyo1-7" target="vQDiU9HeTUrOOh70G-Bs-14">
          <mxGeometry relative="1" as="geometry" />
        </mxCell>
        <mxCell id="Xazr9b2hqAeC7u9Wwyo1-7" value="est publié" style="ellipse;whiteSpace=wrap;html=1;fillColor=#ffe6cc;strokeColor=#d79b00;" vertex="1" parent="1">
          <mxGeometry x="580" y="340" width="80" height="30" as="geometry" />
        </mxCell>
        <mxCell id="Xazr9b2hqAeC7u9Wwyo1-12" value="&lt;b&gt;1, n&lt;br&gt;&lt;/b&gt;" style="text;html=1;strokeColor=none;fillColor=none;align=center;verticalAlign=middle;whiteSpace=wrap;rounded=0;" vertex="1" parent="1">
          <mxGeometry x="570" y="325" width="30" height="20" as="geometry" />
        </mxCell>
        <mxCell id="Xazr9b2hqAeC7u9Wwyo1-13" value="&lt;b&gt;1, 1&lt;br&gt;&lt;/b&gt;" style="text;html=1;strokeColor=none;fillColor=none;align=center;verticalAlign=middle;whiteSpace=wrap;rounded=0;" vertex="1" parent="1">
          <mxGeometry x="750" y="345" width="30" height="20" as="geometry" />
        </mxCell>
        <mxCell id="Xazr9b2hqAeC7u9Wwyo1-36" style="edgeStyle=orthogonalEdgeStyle;rounded=0;orthogonalLoop=1;jettySize=auto;html=1;exitX=0.5;exitY=1;exitDx=0;exitDy=0;entryX=0.25;entryY=0;entryDx=0;entryDy=0;endArrow=block;endFill=0;strokeWidth=1;endSize=20;" edge="1" parent="1" source="Xazr9b2hqAeC7u9Wwyo1-21" target="Xazr9b2hqAeC7u9Wwyo1-32">
          <mxGeometry relative="1" as="geometry" />
        </mxCell>
        <mxCell id="Xazr9b2hqAeC7u9Wwyo1-61" style="edgeStyle=orthogonalEdgeStyle;rounded=0;orthogonalLoop=1;jettySize=auto;html=1;exitX=0.25;exitY=1;exitDx=0;exitDy=0;entryX=0.5;entryY=0;entryDx=0;entryDy=0;endArrow=block;endFill=0;endSize=20;" edge="1" parent="1" source="Xazr9b2hqAeC7u9Wwyo1-21" target="Xazr9b2hqAeC7u9Wwyo1-38">
          <mxGeometry relative="1" as="geometry" />
        </mxCell>
        <mxCell id="Xazr9b2hqAeC7u9Wwyo1-21" value="Collection" style="swimlane;fontStyle=0;childLayout=stackLayout;horizontal=1;startSize=30;horizontalStack=0;resizeParent=1;resizeParentMax=0;resizeLast=0;collapsible=1;marginBottom=0;whiteSpace=wrap;html=1;fillColor=#dae8fc;strokeColor=#000000;" vertex="1" parent="1">
          <mxGeometry x="80" y="380" width="140" height="90" as="geometry" />
        </mxCell>
        <mxCell id="Xazr9b2hqAeC7u9Wwyo1-22" value="&lt;u&gt;Identifiant&lt;/u&gt;" style="text;strokeColor=default;fillColor=#dae8fc;align=left;verticalAlign=middle;spacingLeft=4;spacingRight=4;overflow=hidden;points=[[0,0.5],[1,0.5]];portConstraint=eastwest;rotatable=0;whiteSpace=wrap;html=1;" vertex="1" parent="Xazr9b2hqAeC7u9Wwyo1-21">
          <mxGeometry y="30" width="140" height="30" as="geometry" />
        </mxCell>
        <mxCell id="Xazr9b2hqAeC7u9Wwyo1-23" value="Nom" style="text;strokeColor=none;fillColor=#dae8fc;align=left;verticalAlign=middle;spacingLeft=4;spacingRight=4;overflow=hidden;points=[[0,0.5],[1,0.5]];portConstraint=eastwest;rotatable=0;whiteSpace=wrap;html=1;" vertex="1" parent="Xazr9b2hqAeC7u9Wwyo1-21">
          <mxGeometry y="60" width="140" height="30" as="geometry" />
        </mxCell>
        <mxCell id="Xazr9b2hqAeC7u9Wwyo1-26" style="edgeStyle=orthogonalEdgeStyle;rounded=0;orthogonalLoop=1;jettySize=auto;html=1;exitX=0;exitY=0.5;exitDx=0;exitDy=0;entryX=1.032;entryY=0.116;entryDx=0;entryDy=0;endArrow=none;endFill=0;entryPerimeter=0;" edge="1" parent="1" source="Xazr9b2hqAeC7u9Wwyo1-24" target="Xazr9b2hqAeC7u9Wwyo1-21">
          <mxGeometry relative="1" as="geometry" />
        </mxCell>
        <mxCell id="Xazr9b2hqAeC7u9Wwyo1-24" value="est rangé" style="ellipse;whiteSpace=wrap;html=1;fillColor=#ffe6cc;strokeColor=#d79b00;" vertex="1" parent="1">
          <mxGeometry x="270" y="360" width="80" height="30" as="geometry" />
        </mxCell>
        <mxCell id="Xazr9b2hqAeC7u9Wwyo1-25" style="edgeStyle=orthogonalEdgeStyle;rounded=0;orthogonalLoop=1;jettySize=auto;html=1;exitX=0;exitY=0.5;exitDx=0;exitDy=0;entryX=1;entryY=0.5;entryDx=0;entryDy=0;endArrow=none;endFill=0;" edge="1" parent="1" source="vQDiU9HeTUrOOh70G-Bs-13" target="Xazr9b2hqAeC7u9Wwyo1-24">
          <mxGeometry relative="1" as="geometry" />
        </mxCell>
        <mxCell id="Xazr9b2hqAeC7u9Wwyo1-27" value="&lt;b&gt;1, n&lt;br&gt;&lt;/b&gt;" style="text;html=1;strokeColor=none;fillColor=none;align=center;verticalAlign=middle;whiteSpace=wrap;rounded=0;" vertex="1" parent="1">
          <mxGeometry x="340" y="345" width="30" height="20" as="geometry" />
        </mxCell>
        <mxCell id="Xazr9b2hqAeC7u9Wwyo1-30" value="&lt;b&gt;0, n&lt;br&gt;&lt;/b&gt;" style="text;html=1;strokeColor=none;fillColor=none;align=center;verticalAlign=middle;whiteSpace=wrap;rounded=0;" vertex="1" parent="1">
          <mxGeometry x="240" y="345" width="30" height="20" as="geometry" />
        </mxCell>
        <mxCell id="Xazr9b2hqAeC7u9Wwyo1-32" value="Album" style="swimlane;fontStyle=0;childLayout=stackLayout;horizontal=1;startSize=30;horizontalStack=0;resizeParent=1;resizeParentMax=0;resizeLast=0;collapsible=1;marginBottom=0;whiteSpace=wrap;html=1;fillColor=#dae8fc;strokeColor=#000000;" vertex="1" parent="1">
          <mxGeometry x="170" y="520" width="110" height="60" as="geometry" />
        </mxCell>
        <mxCell id="Xazr9b2hqAeC7u9Wwyo1-34" value="Nom_utilisateur" style="text;strokeColor=none;fillColor=#dae8fc;align=left;verticalAlign=middle;spacingLeft=4;spacingRight=4;overflow=hidden;points=[[0,0.5],[1,0.5]];portConstraint=eastwest;rotatable=0;whiteSpace=wrap;html=1;" vertex="1" parent="Xazr9b2hqAeC7u9Wwyo1-32">
          <mxGeometry y="30" width="110" height="30" as="geometry" />
        </mxCell>
        <mxCell id="Xazr9b2hqAeC7u9Wwyo1-38" value="Galerie" style="swimlane;fontStyle=0;childLayout=stackLayout;horizontal=1;startSize=30;horizontalStack=0;resizeParent=1;resizeParentMax=0;resizeLast=0;collapsible=1;marginBottom=0;whiteSpace=wrap;html=1;fillColor=#dae8fc;strokeColor=#000000;" vertex="1" parent="1">
          <mxGeometry x="20" y="520" width="110" height="60" as="geometry" />
        </mxCell>
        <mxCell id="Xazr9b2hqAeC7u9Wwyo1-39" value="Liste_utilisateurs" style="text;strokeColor=none;fillColor=#dae8fc;align=left;verticalAlign=middle;spacingLeft=4;spacingRight=4;overflow=hidden;points=[[0,0.5],[1,0.5]];portConstraint=eastwest;rotatable=0;whiteSpace=wrap;html=1;" vertex="1" parent="Xazr9b2hqAeC7u9Wwyo1-38">
          <mxGeometry y="30" width="110" height="30" as="geometry" />
        </mxCell>
        <mxCell id="Xazr9b2hqAeC7u9Wwyo1-48" style="edgeStyle=orthogonalEdgeStyle;rounded=0;orthogonalLoop=1;jettySize=auto;html=1;exitX=1;exitY=0.5;exitDx=0;exitDy=0;entryX=0;entryY=0.5;entryDx=0;entryDy=0;endArrow=none;endFill=0;" edge="1" parent="1" source="Xazr9b2hqAeC7u9Wwyo1-52" target="Xazr9b2hqAeC7u9Wwyo1-1">
          <mxGeometry relative="1" as="geometry" />
        </mxCell>
        <mxCell id="Xazr9b2hqAeC7u9Wwyo1-46" value="appartient" style="ellipse;whiteSpace=wrap;html=1;fillColor=#ffe6cc;strokeColor=#d79b00;" vertex="1" parent="1">
          <mxGeometry x="420" y="405" width="80" height="30" as="geometry" />
        </mxCell>
        <mxCell id="Xazr9b2hqAeC7u9Wwyo1-45" style="edgeStyle=orthogonalEdgeStyle;rounded=0;orthogonalLoop=1;jettySize=auto;html=1;entryX=0;entryY=0.5;entryDx=0;entryDy=0;endArrow=none;endFill=0;" edge="1" parent="1" source="Xazr9b2hqAeC7u9Wwyo1-50" target="Xazr9b2hqAeC7u9Wwyo1-46">
          <mxGeometry relative="1" as="geometry">
            <mxPoint x="420" y="424.7142857142858" as="targetPoint" />
            <mxPoint x="220" y="420" as="sourcePoint" />
          </mxGeometry>
        </mxCell>
        <mxCell id="Xazr9b2hqAeC7u9Wwyo1-53" value="" style="edgeStyle=orthogonalEdgeStyle;rounded=0;orthogonalLoop=1;jettySize=auto;html=1;exitX=1;exitY=0.5;exitDx=0;exitDy=0;entryX=0;entryY=0.5;entryDx=0;entryDy=0;endArrow=none;endFill=0;" edge="1" parent="1" source="Xazr9b2hqAeC7u9Wwyo1-46" target="Xazr9b2hqAeC7u9Wwyo1-52">
          <mxGeometry relative="1" as="geometry">
            <mxPoint x="500" y="420" as="sourcePoint" />
            <mxPoint x="670" y="420" as="targetPoint" />
          </mxGeometry>
        </mxCell>
        <mxCell id="Xazr9b2hqAeC7u9Wwyo1-52" value="&lt;b&gt;1, 1&lt;br&gt;&lt;/b&gt;" style="text;html=1;strokeColor=none;fillColor=none;align=center;verticalAlign=middle;whiteSpace=wrap;rounded=0;" vertex="1" parent="1">
          <mxGeometry x="630" y="400" width="30" height="20" as="geometry" />
        </mxCell>
        <mxCell id="Xazr9b2hqAeC7u9Wwyo1-55" value="" style="edgeStyle=orthogonalEdgeStyle;rounded=0;orthogonalLoop=1;jettySize=auto;html=1;entryX=0;entryY=0.5;entryDx=0;entryDy=0;endArrow=none;endFill=0;" edge="1" parent="1" target="Xazr9b2hqAeC7u9Wwyo1-50">
          <mxGeometry relative="1" as="geometry">
            <mxPoint x="420" y="420" as="targetPoint" />
            <mxPoint x="220" y="420" as="sourcePoint" />
          </mxGeometry>
        </mxCell>
        <mxCell id="Xazr9b2hqAeC7u9Wwyo1-50" value="&lt;b&gt;0, n&lt;br&gt;&lt;/b&gt;" style="text;html=1;strokeColor=none;fillColor=none;align=center;verticalAlign=middle;whiteSpace=wrap;rounded=0;" vertex="1" parent="1">
          <mxGeometry x="230" y="410" width="30" height="20" as="geometry" />
        </mxCell>
      </root>
    </mxGraphModel>
  </diagram>
</mxfile>
